<svg width="40" height="41" viewBox="0 0 40 41" fill="none" xmlns="http://www.w3.org/2000/svg">
<path d="M28.3333 3.83325H11.6666C7.06427 3.83325 3.33331 7.56421 3.33331 12.1666V28.8333C3.33331 33.4356 7.06427 37.1666 11.6666 37.1666H28.3333C32.9357 37.1666 36.6666 33.4356 36.6666 28.8333V12.1666C36.6666 7.56421 32.9357 3.83325 28.3333 3.83325Z" fill="#D94A01" stroke="#34344A" stroke-width="3" stroke-linecap="round" stroke-linejoin="round"/>
<path d="M26.6667 19.45C26.8724 20.8371 26.6355 22.2537 25.9896 23.4984C25.3438 24.743 24.3219 25.7524 23.0694 26.3828C21.8169 27.0132 20.3974 27.2327 19.013 27.0099C17.6286 26.7871 16.3496 26.1335 15.3581 25.1419C14.3665 24.1504 13.7129 22.8715 13.4901 21.487C13.2674 20.1026 13.4868 18.6832 14.1172 17.4306C14.7477 16.1781 15.757 15.1562 17.0017 14.5104C18.2463 13.8646 19.6629 13.6277 21.05 13.8333C22.4649 14.0432 23.7748 14.7025 24.7862 15.7139C25.7976 16.7253 26.4569 18.0351 26.6667 19.45Z" stroke="#34344A" stroke-width="3" stroke-linecap="round" stroke-linejoin="round"/>
<path d="M29.1667 11.3333H29.1834" stroke="#34344A" stroke-width="3" stroke-linecap="round" stroke-linejoin="round"/>
</svg>
