<svg width="844" height="181" viewBox="0 0 844 181" fill="none" xmlns="http://www.w3.org/2000/svg">
<path d="M763.987 79.2419C763.007 80.7932 761.946 81.8955 760.803 82.5487C759.741 83.2019 758.353 83.5285 756.639 83.5285C754.842 83.5285 753.046 83.1611 751.25 82.4262C749.454 81.6097 747.494 80.7524 745.371 79.8543C743.33 78.9561 741.003 78.1396 738.39 77.4048C735.777 76.5883 732.797 76.18 729.449 76.18C724.632 76.18 720.917 77.119 718.304 78.9969C715.773 80.7932 714.507 83.3244 714.507 86.5904C714.507 88.9582 715.324 90.9178 716.957 92.4692C718.672 94.0205 720.917 95.4086 723.693 96.6333C726.469 97.7764 729.613 98.8787 733.124 99.9402C736.634 101.002 740.227 102.186 743.901 103.492C747.576 104.798 751.168 106.35 754.679 108.146C758.19 109.861 761.334 112.024 764.11 114.637C766.886 117.168 769.09 120.271 770.723 123.945C772.438 127.619 773.295 132.029 773.295 137.173C773.295 143.46 772.152 149.257 769.866 154.564C767.58 159.871 764.151 164.444 759.578 168.281C755.087 172.119 749.494 175.099 742.799 177.222C736.185 179.345 728.551 180.406 719.896 180.406C715.569 180.406 711.241 179.998 706.914 179.181C702.586 178.365 698.381 177.263 694.299 175.875C690.298 174.487 686.583 172.854 683.154 170.976C679.724 169.016 676.785 166.934 674.336 164.729L683.154 150.767C684.134 149.134 685.358 147.869 686.828 146.971C688.379 145.991 690.339 145.501 692.707 145.501C694.911 145.501 696.871 145.991 698.586 146.971C700.382 147.95 702.301 149.012 704.342 150.155C706.383 151.298 708.751 152.359 711.445 153.339C714.222 154.319 717.692 154.809 721.856 154.809C724.795 154.809 727.286 154.523 729.327 153.952C731.368 153.298 733.001 152.441 734.226 151.38C735.451 150.318 736.349 149.134 736.92 147.828C737.492 146.521 737.778 145.174 737.778 143.786C737.778 141.255 736.92 139.173 735.206 137.54C733.491 135.907 731.246 134.519 728.469 133.376C725.693 132.151 722.509 131.049 718.916 130.069C715.405 129.008 711.813 127.824 708.139 126.517C704.464 125.211 700.831 123.659 697.238 121.863C693.727 119.985 690.584 117.658 687.808 114.882C685.032 112.024 682.786 108.554 681.072 104.472C679.357 100.389 678.5 95.4494 678.5 89.6523C678.5 84.2634 679.52 79.1602 681.562 74.3429C683.684 69.4439 686.828 65.1573 690.992 61.483C695.156 57.8088 700.382 54.9102 706.669 52.7873C712.956 50.5827 720.304 49.4805 728.714 49.4805C733.287 49.4805 737.696 49.8887 741.942 50.7052C746.269 51.5217 750.311 52.6648 754.067 54.1345C757.823 55.6042 761.252 57.3597 764.355 59.4009C767.457 61.3605 770.193 63.5243 772.56 65.8921L763.987 79.2419Z" fill="#D94A01"/>
<path d="M599.49 49.4805C609.125 49.4805 617.902 50.991 625.822 54.012C633.742 57.0331 640.519 61.3605 646.153 66.9944C651.869 72.6282 656.278 79.4868 659.381 87.5702C662.565 95.5719 664.157 104.594 664.157 114.637C664.157 124.762 662.565 133.907 659.381 142.072C656.278 150.155 651.869 157.054 646.153 162.77C640.519 168.404 633.742 172.772 625.822 175.875C617.902 178.896 609.125 180.406 599.49 180.406C589.774 180.406 580.915 178.896 572.913 175.875C564.993 172.772 558.135 168.404 552.337 162.77C546.622 157.054 542.172 150.155 538.988 142.072C535.885 133.907 534.334 124.762 534.334 114.637C534.334 104.594 535.885 95.5719 538.988 87.5702C542.172 79.4868 546.622 72.6282 552.337 66.9944C558.135 61.3605 564.993 57.0331 572.913 54.012C580.915 50.991 589.774 49.4805 599.49 49.4805ZM599.49 152.237C608.227 152.237 614.636 149.175 618.719 143.051C622.883 136.846 624.965 127.456 624.965 114.882C624.965 102.308 622.883 92.9591 618.719 86.8353C614.636 80.7116 608.227 77.6497 599.49 77.6497C590.509 77.6497 583.936 80.7116 579.772 86.8353C575.608 92.9591 573.526 102.308 573.526 114.882C573.526 127.456 575.608 136.846 579.772 143.051C583.936 149.175 590.509 152.237 599.49 152.237Z" fill="#D94A01"/>
<path d="M436.277 65.1573C438.726 62.8711 441.257 60.7482 443.87 58.7886C446.483 56.829 449.259 55.196 452.198 53.8896C455.22 52.5015 458.445 51.4401 461.874 50.7052C465.385 49.8887 469.182 49.4805 473.264 49.4805C480.204 49.4805 486.328 50.7052 491.635 53.1547C497.024 55.5226 501.556 58.8702 505.23 63.1977C508.904 67.4435 511.68 72.5466 513.558 78.507C515.436 84.3858 516.375 90.7954 516.375 97.7356V178.447H478.408V97.7356C478.408 91.5302 476.979 86.7129 474.121 83.2836C471.264 79.7726 467.059 78.0171 461.507 78.0171C457.342 78.0171 453.423 78.9153 449.749 80.7116C446.156 82.4262 442.645 84.7941 439.216 87.8151V178.447H401.249V51.4401H424.764C429.5 51.4401 432.602 53.563 434.072 57.8088L436.277 65.1573Z" fill="#D94A01"/>
<path d="M296.579 65.1573C299.028 62.8711 301.56 60.7482 304.172 58.7886C306.785 56.829 309.561 55.196 312.501 53.8896C315.522 52.5015 318.747 51.4401 322.176 50.7052C325.687 49.8887 329.484 49.4805 333.566 49.4805C340.507 49.4805 346.63 50.7052 351.938 53.1547C357.326 55.5226 361.858 58.8702 365.532 63.1977C369.206 67.4435 371.983 72.5466 373.861 78.507C375.738 84.3858 376.677 90.7954 376.677 97.7356V178.447H338.71V97.7356C338.71 91.5302 337.281 86.7129 334.424 83.2836C331.566 79.7726 327.361 78.0171 321.809 78.0171C317.645 78.0171 313.725 78.9153 310.051 80.7116C306.458 82.4262 302.948 84.7941 299.518 87.8151V178.447H261.551V51.4401H285.066C289.802 51.4401 292.905 53.563 294.374 57.8088L296.579 65.1573Z" fill="#D94A01"/>
<path d="M208.504 99.6952C208.504 96.6742 208.096 93.7348 207.279 90.877C206.545 88.0193 205.279 85.4881 203.483 83.2836C201.768 80.9974 199.482 79.1602 196.624 77.7722C193.766 76.3841 190.296 75.6901 186.214 75.6901C179.029 75.6901 173.395 77.7722 169.312 81.9363C165.23 86.0188 162.535 91.9385 161.229 99.6952H208.504ZM160.739 121.741C161.964 132.355 165.189 140.071 170.414 144.888C175.64 149.624 182.376 151.992 190.623 151.992C195.032 151.992 198.829 151.461 202.013 150.4C205.197 149.338 208.014 148.154 210.464 146.848C212.995 145.542 215.281 144.358 217.322 143.296C219.445 142.235 221.65 141.704 223.936 141.704C226.957 141.704 229.243 142.806 230.795 145.011L241.817 158.606C237.898 163.096 233.652 166.771 229.08 169.628C224.589 172.404 219.935 174.609 215.118 176.242C210.382 177.793 205.606 178.855 200.788 179.426C196.053 180.08 191.521 180.406 187.194 180.406C178.294 180.406 169.925 178.977 162.086 176.12C154.329 173.18 147.512 168.853 141.633 163.137C135.836 157.422 131.222 150.318 127.793 141.827C124.446 133.335 122.772 123.455 122.772 112.188C122.772 103.696 124.201 95.6535 127.058 88.0601C129.998 80.4666 134.162 73.8122 139.551 68.0967C145.021 62.3812 151.594 57.8496 159.269 54.5019C167.026 51.1543 175.763 49.4805 185.479 49.4805C193.889 49.4805 201.564 50.7869 208.504 53.3997C215.526 56.0125 221.527 59.8092 226.508 64.7899C231.57 69.7705 235.489 75.8942 238.266 83.1611C241.123 90.3463 242.552 98.5113 242.552 107.656C242.552 110.514 242.43 112.841 242.185 114.637C241.94 116.433 241.491 117.862 240.838 118.924C240.184 119.985 239.286 120.72 238.143 121.128C237.082 121.537 235.694 121.741 233.979 121.741H160.739Z" fill="#D94A01"/>
<path d="M827.529 32.8233H91.6112V178.446H50.2147V32.8233H0V0H843.943L827.529 32.8233Z" fill="#D94A01"/>
<path d="M786.113 157.103C786.113 153.749 786.719 150.629 787.93 147.741C789.234 144.853 790.958 142.337 793.1 140.195C795.336 138.052 797.945 136.375 800.926 135.164C803.907 133.86 807.167 133.208 810.708 133.208C814.155 133.208 817.369 133.86 820.35 135.164C823.331 136.375 825.939 138.052 828.175 140.195C830.411 142.337 832.135 144.853 833.346 147.741C834.65 150.629 835.302 153.749 835.302 157.103C835.302 160.457 834.65 163.624 833.346 166.606C832.135 169.494 830.411 172.009 828.175 174.152C825.939 176.294 823.331 177.971 820.35 179.182C817.369 180.393 814.155 180.999 810.708 180.999C807.167 180.999 803.907 180.393 800.926 179.182C797.945 177.971 795.336 176.294 793.1 174.152C790.958 172.009 789.234 169.494 787.93 166.606C786.719 163.624 786.113 160.457 786.113 157.103Z" fill="#D94A01"/>
</svg>
